PathFileType	4	(X/Y/Z)	62_2_72_p0_0-900_filt_butterworth.trc
DataRate	CameraRate	NumFrames	NumMarkers	Units	OrigDataRate	OrigDataStartFrame	OrigNumFrames
59.0	59.0	6	27	m	59.0	787	900
Frame#	Time	RHip			RKnee			RAnkle			RBigToe			RSmallToe			RHeel			LHip			LKnee			LAnkle			LBigToe			LSmallToe			LHeel			Neck			Head			Nose			RShoulder			RElbow			RWrist			RThumb			RIndex			RPinky			LShoulder			LElbow			LWrist			LThumb			LIndex			LPinky			
		X1	Y1	Z1	X2	Y2	Z2	X3	Y3	Z3	X4	Y4	Z4	X5	Y5	Z5	X6	Y6	Z6	X7	Y7	Z7	X8	Y8	Z8	X9	Y9	Z9	X10	Y10	Z10	X11	Y11	Z11	X12	Y12	Z12	X13	Y13	Z13	X14	Y14	Z14	X15	Y15	Z15	X16	Y16	Z16	X17	Y17	Z17	X18	Y18	Z18	X19	Y19	Z19	X20	Y20	Z20	X21	Y21	Z21	X22	Y22	Z22	X23	Y23	Z23	X24	Y24	Z24	X25	Y25	Z25	X26	Y26	Z26	X27	Y27	Z27	
787	13.33898305084746	0.33835141339852165	0.41443756049287683	0.280327513906433	0.35839625599621666	0.7528112732618648	0.5777152602987532	0.3532764056472418	1.0407752290157664	0.8529607219280828	0.29771178370792245	0.9215084908288065	0.9412267711178055	0.35228423381527596	0.929244001736879	0.9366054796441756	0.3394080062257631	1.1244597851521592	0.8481242241232256	0.1440586169410476	0.4882510265091865	0.24432909652449564	0.1440988695221201	0.8217247272973824	0.5474079881867253	0.1445907323435251	1.0657012350911939	0.8381226635219117	0.12060330393163081	0.9361383591938122	0.9238346031827431	0.07905078180937095	0.9861296418161697	0.8988131598784115	0.15931558619111574	1.122037407029656	0.8517072897153473	0.23176934718996084	0.10120830698653614	-0.21162512985341625	0.2390486336611937	-0.03609530820616376	-0.3926874930634813	0.22605861828265483	-0.056192528420725446	-0.2547549027389576	0.36944516145354855	0.08638722350262308	-0.09573927436954946	0.4163267689382545	0.22251034227560798	0.13142344203880502	0.23371887413135461	0.24375553791245677	0.3153271416271909	0.15584368766866658	0.32763331234101095	0.35736565439028356	0.16133600608399642	0.35675912394732157	0.36741929287084707	0.17556045312621973	0.3036199309914387	0.39162616476322143	0.05987453321283371	0.18699446991061025	-0.1650871077895286	0.01397039307314929	0.3241611990591682	0.06588485074889272	0.11987707142056736	0.25377906085504637	0.2914447746053762	0.16817493761165886	0.22485797349334763	0.3675966523102444	0.1804830150829624	0.267805865342381	0.39128508903645887	0.17577610691340317	0.3253884667116281	0.37846745480891564
788	13.35593220338983	0.3383256585725677	0.4144497634822956	0.28069564366706595	0.3597570195698271	0.7550626218587475	0.5784720381361871	0.353683336282529	1.0415578938054844	0.8538030685018576	0.297719831954878	0.9218841895927478	0.9421963827041766	0.35229800872752304	0.9297242852387811	0.9374186392114249	0.3392927959709382	1.1243760732736177	0.8485135726540318	0.14499154601301306	0.48848878290296893	0.24419823379167563	0.14412626761889225	0.8219316222973956	0.5473923445857888	0.14459723968026275	1.06575013532559	0.8381167141248262	0.119980408515033	0.9359160452021429	0.9239941290639937	0.07904087272226602	0.9861595040438066	0.8987827195179178	0.16164086586180193	1.1276500250695618	0.8511882232359833	0.23178448755476033	0.10128525134373252	-0.21175030172905818	0.23788307652781648	-0.03685196581524896	-0.3933354868854768	0.2243821505245877	-0.056743036330940806	-0.25253826667054685	0.369195206818204	0.08514531904329309	-0.09693836647995561	0.4145329538487398	0.2142617697925337	0.1326909690770203	0.2340227245673629	0.24039349068932853	0.3169519421685498	0.1558993255287185	0.32566823744782836	0.35844340498021865	0.1614784386165676	0.3563808231268262	0.3657185981454896	0.17653975641858266	0.3055818668000714	0.3912682101548169	0.05988708733022618	0.18703761110064293	-0.16508572902266858	0.014153729649647	0.3235384724140727	0.06544302743987358	0.12049189802807693	0.2552495299101211	0.29243526113051055	0.16432198410643403	0.22460020626691224	0.36971760267585885	0.17708604164965083	0.26633900890958273	0.39144096808291906	0.1764561833210203	0.3202130121453959	0.38264419040792697
789	13.372881355932204	0.3384220387392239	0.4147900966889208	0.2812891597638668	0.360842794525822	0.7558889127234952	0.5802746328088105	0.3540372128170356	1.0397158883885491	0.8542082723041451	0.2977000486054449	0.9220241750962798	0.9426468941240228	0.35218684690401836	0.929982718234871	0.9375716352212529	0.33973158071288173	1.1254286357473875	0.8493339119736885	0.14625504357600455	0.4886474058676748	0.24410363687310252	0.14414825130273728	0.8218907718326955	0.5475978350829144	0.14460807425231265	1.0657771559306841	0.8381192800563212	0.11825832168025488	0.936210137914133	0.9241029902814188	0.078994118824811	0.9860876931823075	0.8984622718577909	0.16346887411104188	1.1319088052432202	0.8507294119613555	0.23179310870105588	0.10135329288476325	-0.21182436633217294	0.2363851645544714	-0.03736895932736912	-0.3938436504429834	0.22179385722965286	-0.05752186146217314	-0.2510245879552986	0.36897024652437244	0.08382176457804943	-0.09848147196675741	0.4135881940455499	0.20855038686530306	0.13325222128362146	0.23426016873203795	0.2363569107270662	0.31816800507112875	0.15579318451916385	0.3215776660458503	0.3596951884732982	0.1612673282779737	0.35434092052053534	0.36533578968149205	0.17735292948221454	0.3054795201725131	0.3912861485769791	0.059776874787529785	0.18686845967134036	-0.1649406698523515	0.014927411328357159	0.32171592218279543	0.06600558235529388	0.12222636267890445	0.25727945123785495	0.2930733484016796	0.16149135882906787	0.224638157628979	0.3713983761414607	0.17410169663538985	0.2651565532910504	0.3916052324766656	0.17710905965096674	0.3148693099207537	0.3860411009665861
790	13.389830508474576	0.33861153345732686	0.41518442703415426	0.2820064580009877	0.36129328997275645	0.7562867879057872	0.5822290010560339	0.35438990277625587	1.0350344778376919	0.8544889383857526	0.29766150722605655	0.921932291559703	0.9426678886667544	0.35201462100002956	0.9299257987293821	0.9374237324763404	0.3411645320304238	1.128479797692898	0.8502141792385001	0.14725725984644855	0.48870186491667056	0.24406109424166222	0.1441084281179503	0.8220245004092025	0.548125297658999	0.1446196170437294	1.0657722608666955	0.8381265766146018	0.11576038952769041	0.9372127371737851	0.9238948029621756	0.0789075268797794	0.9857856213836611	0.8975505655059985	0.1642723787685374	1.1337547896362232	0.8505349666695041	0.23179192617255345	0.10138742777250026	-0.21183114067389508	0.23514762457007854	-0.03792166980537156	-0.3941018188065595	0.2188574366090765	-0.05944150783248579	-0.24943430295354313	0.36885753597391563	0.08265551537633423	-0.10011522957329715	0.41322566811048955	0.20630593168661582	0.13333464712325022	0.23431307328807202	0.23384626380029938	0.3186533568199955	0.1559502613674398	0.3165170580060314	0.36251784486933736	0.16121379531568583	0.3512608088119564	0.367444019530812	0.17784480480744594	0.3048227445432585	0.39149565565678923	0.05970147798687131	0.18673183932083218	-0.16484196542962856	0.01650997716776425	0.3184195080982558	0.06739886202208445	0.12430828426672505	0.2591172028701543	0.2932295851302013	0.16077182102001525	0.22491810535770926	0.3719591918941246	0.17271970292079286	0.2647745851541793	0.39176945271174707	0.17768266077556596	0.31001209778513045	0.3883182347875964
791	13.40677966101695	0.33875849978533124	0.41531304521626305	0.2826999674140396	0.36132519255041684	0.7563148001021232	0.5829651050586462	0.3547625855218985	1.0302972752947281	0.8546772164135339	0.2976410951538004	0.9216888832982975	0.9422801485163413	0.3518652861441875	0.9297416324887792	0.9369620940245139	0.3436899047836207	1.1336884162800225	0.8506272589610777	0.14763210700624788	0.48869374371278385	0.2440436507685926	0.14414414865589784	0.8221695769844186	0.5491214958988447	0.1446383818979204	1.065739989598015	0.8381358513814088	0.11365939677334012	0.9385846151233559	0.9233357388734151	0.07881829907528852	0.9853208351642858	0.8962474742822333	0.16427962661024775	1.1336792002828266	0.8505207698394603	0.23178357174817557	0.10138918212580718	-0.21181997565148142	0.23415167878625895	-0.038936240722153855	-0.39351935049331405	0.21645883489019646	-0.06343684257983015	-0.24678015289413535	0.3688544834347697	0.08164881806330394	-0.10162009637090509	0.4133427101989724	0.2061741661102179	0.13325392662846347	0.23422402177017934	0.2340639381971359	0.31871526916784704	0.15673587043119452	0.311313183807492	0.36621985717847383	0.16134156435235078	0.3472591416366309	0.37090150701799396	0.1782202505851454	0.3033125377443513	0.39195823740393326	0.059636790667213696	0.18650242416040644	-0.16485772190481005	0.018521530892079575	0.31449373119008833	0.06866422981179894	0.12521740109647322	0.2602365655854492	0.29325931415716344	0.1617785011805634	0.22504625507100826	0.3717437988094292	0.17252710855198272	0.2648085788145222	0.39193588131616725	0.1782569438431135	0.305648999770702	0.389800361290747
792	13.423728813559322	0.3387624380913845	0.41543407066143484	0.28301718775049545	0.361256592990476	0.7559881802636931	0.5823333327590531	0.35504047630442	1.0278129689579334	0.8546185466380843	0.2976508674380441	0.921382979930393	0.9413985672393839	0.3517933412831469	0.9297046501669162	0.9359944287573454	0.3465698347280237	1.139556985192682	0.8505447405262407	0.14755700539496638	0.48869416997832504	0.24402120339506106	0.1446119913439965	0.8221342093289009	0.5503350073716654	0.14467327606792846	1.0656878755246144	0.8381614253790939	0.11286496745530289	0.939739585287348	0.9227605058673043	0.07877625785323256	0.9849321971713182	0.8951736778615611	0.16358109292550613	1.1315974202892505	0.8506176073276381	0.23177204510139476	0.10138174662785493	-0.2118732583928844	0.2328174878065827	-0.04076298899566526	-0.3916466884457233	0.21491394266478345	-0.06797445040550412	-0.2438333383349608	0.36890280162190847	0.08075406295667899	-0.10277881157801874	0.4145407499658368	0.20687208227266882	0.13304727115278128	0.23412196907058033	0.23628881882525435	0.31866697030132046	0.15820862332664937	0.3075568298446442	0.36846841641500855	0.1614949091153848	0.3426041216760007	0.3731311196446659	0.17874595653758332	0.3002710791263175	0.39261672464473063	0.05957034137224748	0.1860510151698567	-0.16510755174911024	0.02023359381349549	0.3116235338932185	0.06933346005789884	0.12474583323982714	0.2607373191470285	0.2933956234400397	0.16392453243275706	0.22501421358692542	0.3712384540756185	0.17325720976561026	0.2650012046853215	0.3919416032406409	0.1785669961762645	0.30236764561035495	0.3902869106957738
